HIERARCHY
ROOT mixamorig:Hips
{
	OFFSET -0.000008 104.274872 1.554316
	CHANNELS 6 Xposition Yposition Zposition Xrotation Yrotation Zrotation
	JOINT mixamorig:Spine
	{
		OFFSET -0.000005 10.181595 0.131519
		CHANNELS 6 Xposition Yposition Zposition Xrotation Yrotation Zrotation
		JOINT mixamorig:Spine1
		{
			OFFSET -0.000000 9.893959 -1.470707
			CHANNELS 6 Xposition Yposition Zposition Xrotation Yrotation Zrotation
			JOINT mixamorig:Spine2
			{
				OFFSET -0.000000 9.220757 -1.370641
				CHANNELS 6 Xposition Yposition Zposition Xrotation Yrotation Zrotation
				JOINT mixamorig:Neck
				{
					OFFSET 0.000001 16.740417 -2.049036
					CHANNELS 6 Xposition Yposition Zposition Xrotation Yrotation Zrotation
					JOINT mixamorig:Head
					{
						OFFSET 0.000000 9.617874 1.685006
						CHANNELS 6 Xposition Yposition Zposition Xrotation Yrotation Zrotation
						JOINT mixamorig:HeadTop_End
						{
							OFFSET 0.000002 22.037354 7.501101
							CHANNELS 6 Xposition Yposition Zposition Xrotation Yrotation Zrotation
							End Site
							{
								OFFSET 0.000168 2310.654297 -282.823242
							}
						}
					}
				}
				JOINT mixamorig:RightShoulder
				{
					OFFSET -4.569970 11.014908 -2.160885
					CHANNELS 6 Xposition Yposition Zposition Xrotation Yrotation Zrotation
					JOINT mixamorig:RightArm
					{
						OFFSET -10.592851 -0.524811 -2.232101
						CHANNELS 6 Xposition Yposition Zposition Xrotation Yrotation Zrotation
						JOINT mixamorig:RightForeArm
						{
							OFFSET -27.841511 0.000031 -0.000004
							CHANNELS 6 Xposition Yposition Zposition Xrotation Yrotation Zrotation
							JOINT mixamorig:RightHand
							{
								OFFSET -28.328831 -0.000015 0.000015
								CHANNELS 6 Xposition Yposition Zposition Xrotation Yrotation Zrotation
								JOINT mixamorig:RightHandThumb1
								{
									OFFSET -2.464806 -1.573990 2.681852
									CHANNELS 6 Xposition Yposition Zposition Xrotation Yrotation Zrotation
									JOINT mixamorig:RightHandThumb2
									{
										OFFSET -3.215179 -1.872803 1.924282
										CHANNELS 6 Xposition Yposition Zposition Xrotation Yrotation Zrotation
										JOINT mixamorig:RightHandThumb3
										{
											OFFSET -2.654831 -1.527969 1.512609
											CHANNELS 6 Xposition Yposition Zposition Xrotation Yrotation Zrotation
											JOINT mixamorig:RightHandThumb4
											{
												OFFSET -2.018814 -1.152008 1.108052
												CHANNELS 6 Xposition Yposition Zposition Xrotation Yrotation Zrotation
												End Site
												{
													OFFSET -188.809540 -114.533607 132.431396
												}
											}
										}
									}
								}
								JOINT mixamorig:RightHandIndex1
								{
									OFFSET -9.108284 -0.517868 2.259835
									CHANNELS 6 Xposition Yposition Zposition Xrotation Yrotation Zrotation
									JOINT mixamorig:RightHandIndex2
									{
										OFFSET -3.699989 0.000000 0.001215
										CHANNELS 6 Xposition Yposition Zposition Xrotation Yrotation Zrotation
										JOINT mixamorig:RightHandIndex3
										{
											OFFSET -2.850006 0.000031 -0.000522
											CHANNELS 6 Xposition Yposition Zposition Xrotation Yrotation Zrotation
											JOINT mixamorig:RightHandIndex4
											{
												OFFSET -2.772186 -0.000015 -0.000020
												CHANNELS 6 Xposition Yposition Zposition Xrotation Yrotation Zrotation
												End Site
												{
													OFFSET -277.218445 0.000000 -0.050231
												}
											}
										}
									}
								}
								JOINT mixamorig:RightHandMiddle1
								{
									OFFSET -9.532516 -0.000031 -0.000023
									CHANNELS 6 Xposition Yposition Zposition Xrotation Yrotation Zrotation
									JOINT mixamorig:RightHandMiddle2
									{
										OFFSET -3.700005 -0.000015 0.003713
										CHANNELS 6 Xposition Yposition Zposition Xrotation Yrotation Zrotation
										JOINT mixamorig:RightHandMiddle3
										{
											OFFSET -2.949974 0.000015 -0.002054
											CHANNELS 6 Xposition Yposition Zposition Xrotation Yrotation Zrotation
											JOINT mixamorig:RightHandMiddle4
											{
												OFFSET -2.946640 0.000000 -0.000156
												CHANNELS 6 Xposition Yposition Zposition Xrotation Yrotation Zrotation
												End Site
												{
													OFFSET -294.664337 0.000000 -0.113670
												}
											}
										}
									}
								}
								JOINT mixamorig:RightHandRing1
								{
									OFFSET -9.103600 -0.043076 -1.865134
									CHANNELS 6 Xposition Yposition Zposition Xrotation Yrotation Zrotation
									JOINT mixamorig:RightHandRing2
									{
										OFFSET -3.379288 0.000000 -0.001055
										CHANNELS 6 Xposition Yposition Zposition Xrotation Yrotation Zrotation
										JOINT mixamorig:RightHandRing3
										{
											OFFSET -2.889687 -0.000015 0.000379
											CHANNELS 6 Xposition Yposition Zposition Xrotation Yrotation Zrotation
											JOINT mixamorig:RightHandRing4
											{
												OFFSET -2.638809 -0.000015 0.000941
												CHANNELS 6 Xposition Yposition Zposition Xrotation Yrotation Zrotation
												End Site
												{
													OFFSET -263.880371 0.000000 0.516020
												}
											}
										}
									}
								}
								JOINT mixamorig:RightHandPinky1
								{
									OFFSET -8.076683 -0.486710 -3.806280
									CHANNELS 6 Xposition Yposition Zposition Xrotation Yrotation Zrotation
									JOINT mixamorig:RightHandPinky2
									{
										OFFSET -3.600014 -0.000015 -0.003747
										CHANNELS 6 Xposition Yposition Zposition Xrotation Yrotation Zrotation
										JOINT mixamorig:RightHandPinky3
										{
											OFFSET -2.099983 0.000000 -0.005739
											CHANNELS 6 Xposition Yposition Zposition Xrotation Yrotation Zrotation
											JOINT mixamorig:RightHandPinky4
											{
												OFFSET -2.115768 -0.000031 -0.003680
												CHANNELS 6 Xposition Yposition Zposition Xrotation Yrotation Zrotation
												End Site
												{
													OFFSET -211.577087 0.000000 -0.350686
												}
											}
										}
									}
								}
							}
						}
					}
				}
				JOINT mixamorig:LeftShoulder
				{
					OFFSET 4.570447 11.014725 -2.160855
					CHANNELS 6 Xposition Yposition Zposition Xrotation Yrotation Zrotation
					JOINT mixamorig:LeftArm
					{
						OFFSET 10.592371 -0.524597 -2.232119
						CHANNELS 6 Xposition Yposition Zposition Xrotation Yrotation Zrotation
						JOINT mixamorig:LeftForeArm
						{
							OFFSET 27.841532 -0.000031 0.000026
							CHANNELS 6 Xposition Yposition Zposition Xrotation Yrotation Zrotation
							JOINT mixamorig:LeftHand
							{
								OFFSET 28.328846 -0.000061 0.000022
								CHANNELS 6 Xposition Yposition Zposition Xrotation Yrotation Zrotation
								JOINT mixamorig:LeftHandThumb1
								{
									OFFSET 2.466141 -1.576172 2.681732
									CHANNELS 6 Xposition Yposition Zposition Xrotation Yrotation Zrotation
									JOINT mixamorig:LeftHandThumb2
									{
										OFFSET 3.217812 -1.872070 1.916482
										CHANNELS 6 Xposition Yposition Zposition Xrotation Yrotation Zrotation
										JOINT mixamorig:LeftHandThumb3
										{
											OFFSET 2.656029 -1.528778 1.514513
											CHANNELS 6 Xposition Yposition Zposition Xrotation Yrotation Zrotation
											JOINT mixamorig:LeftHandThumb4
											{
												OFFSET 2.020889 -1.154053 1.115139
												CHANNELS 6 Xposition Yposition Zposition Xrotation Yrotation Zrotation
												End Site
												{
													OFFSET 190.885437 -115.081749 130.048782
												}
											}
										}
									}
								}
								JOINT mixamorig:LeftHandIndex1
								{
									OFFSET 9.109314 -0.518021 2.259871
									CHANNELS 6 Xposition Yposition Zposition Xrotation Yrotation Zrotation
									JOINT mixamorig:LeftHandIndex2
									{
										OFFSET 3.699989 0.000000 -0.000322
										CHANNELS 6 Xposition Yposition Zposition Xrotation Yrotation Zrotation
										JOINT mixamorig:LeftHandIndex3
										{
											OFFSET 2.850006 0.000000 0.000352
											CHANNELS 6 Xposition Yposition Zposition Xrotation Yrotation Zrotation
											JOINT mixamorig:LeftHandIndex4
											{
												OFFSET 2.774864 -0.000031 -0.000027
												CHANNELS 6 Xposition Yposition Zposition Xrotation Yrotation Zrotation
												End Site
												{
													OFFSET 277.486267 0.000000 -0.009857
												}
											}
										}
									}
								}
								JOINT mixamorig:LeftHandMiddle1
								{
									OFFSET 9.533394 0.000061 0.000044
									CHANNELS 6 Xposition Yposition Zposition Xrotation Yrotation Zrotation
									JOINT mixamorig:LeftHandMiddle2
									{
										OFFSET 3.699989 -0.000015 -0.000231
										CHANNELS 6 Xposition Yposition Zposition Xrotation Yrotation Zrotation
										JOINT mixamorig:LeftHandMiddle3
										{
											OFFSET 2.949997 -0.000015 -0.000059
											CHANNELS 6 Xposition Yposition Zposition Xrotation Yrotation Zrotation
											JOINT mixamorig:LeftHandMiddle4
											{
												OFFSET 2.952896 0.000031 0.000063
												CHANNELS 6 Xposition Yposition Zposition Xrotation Yrotation Zrotation
												End Site
												{
													OFFSET 295.289337 0.000000 0.022810
												}
											}
										}
									}
								}
								JOINT mixamorig:LeftHandRing1
								{
									OFFSET 9.104523 -0.042999 -1.865074
									CHANNELS 6 Xposition Yposition Zposition Xrotation Yrotation Zrotation
									JOINT mixamorig:LeftHandRing2
									{
										OFFSET 3.150009 -0.000031 0.000043
										CHANNELS 6 Xposition Yposition Zposition Xrotation Yrotation Zrotation
										JOINT mixamorig:LeftHandRing3
										{
											OFFSET 2.949982 -0.000015 0.000040
											CHANNELS 6 Xposition Yposition Zposition Xrotation Yrotation Zrotation
											JOINT mixamorig:LeftHandRing4
											{
												OFFSET 2.644348 0.000000 0.000057
												CHANNELS 6 Xposition Yposition Zposition Xrotation Yrotation Zrotation
												End Site
												{
													OFFSET 264.434631 0.000000 0.012105
												}
											}
										}
									}
								}
								JOINT mixamorig:LeftHandPinky1
								{
									OFFSET 8.077789 -0.486847 -3.806259
									CHANNELS 6 Xposition Yposition Zposition Xrotation Yrotation Zrotation
									JOINT mixamorig:LeftHandPinky2
									{
										OFFSET 3.599953 0.000031 0.014727
										CHANNELS 6 Xposition Yposition Zposition Xrotation Yrotation Zrotation
										JOINT mixamorig:LeftHandPinky3
										{
											OFFSET 2.100021 0.000015 0.007705
											CHANNELS 6 Xposition Yposition Zposition Xrotation Yrotation Zrotation
											JOINT mixamorig:LeftHandPinky4
											{
												OFFSET 2.125504 0.000031 0.007517
												CHANNELS 6 Xposition Yposition Zposition Xrotation Yrotation Zrotation
												End Site
												{
													OFFSET 212.550781 0.000000 0.625752
												}
											}
										}
									}
								}
							}
						}
					}
				}
			}
		}
	}
	JOINT mixamorig:RightUpLeg
	{
		OFFSET -8.207787 -6.751648 -1.599560
		CHANNELS 6 Xposition Yposition Zposition Xrotation Yrotation Zrotation
		JOINT mixamorig:RightLeg
		{
			OFFSET -0.000002 -44.370117 0.345942
			CHANNELS 6 Xposition Yposition Zposition Xrotation Yrotation Zrotation
			JOINT mixamorig:RightFoot
			{
				OFFSET 0.000003 -44.423679 -3.043532
				CHANNELS 6 Xposition Yposition Zposition Xrotation Yrotation Zrotation
				JOINT mixamorig:RightToeBase
				{
					OFFSET -0.000002 -8.728671 10.710558
					CHANNELS 6 Xposition Yposition Zposition Xrotation Yrotation Zrotation
					JOINT mixamorig:RightToe_End
					{
						OFFSET -0.000001 -0.000679 9.278119
						CHANNELS 6 Xposition Yposition Zposition Xrotation Yrotation Zrotation
						End Site
						{
							OFFSET 0.000000 -0.067690 927.812134
						}
					}
				}
			}
		}
	}
	JOINT mixamorig:LeftUpLeg
	{
		OFFSET 8.207793 -6.751686 -1.599556
		CHANNELS 6 Xposition Yposition Zposition Xrotation Yrotation Zrotation
		JOINT mixamorig:LeftLeg
		{
			OFFSET -0.000004 -44.370014 0.346954
			CHANNELS 6 Xposition Yposition Zposition Xrotation Yrotation Zrotation
			JOINT mixamorig:LeftFoot
			{
				OFFSET -0.000001 -44.423672 -3.044401
				CHANNELS 6 Xposition Yposition Zposition Xrotation Yrotation Zrotation
				JOINT mixamorig:LeftToeBase
				{
					OFFSET -0.000002 -8.728669 10.710558
					CHANNELS 6 Xposition Yposition Zposition Xrotation Yrotation Zrotation
					JOINT mixamorig:LeftToe_End
					{
						OFFSET -0.000003 -0.000679 9.278133
						CHANNELS 6 Xposition Yposition Zposition Xrotation Yrotation Zrotation
						End Site
						{
							OFFSET 0.000000 -0.068021 927.813477
						}
					}
				}
			}
		}
	}
}
MOTION
Frames: 3
Frame Time: 0.033333
0.000006 104.270477 1.554256 0.000010 0.000003 -0.000113 -0.000005 10.181587 0.131522 0.000001 -0.000003 0.000084 -0.000000 9.893967 -1.470711 0.000001 0.000000 -0.000000 -0.000000 9.220802 -1.370642 0.000000 -0.000000 -0.000000 0.000001 16.740433 -2.049030 0.000000 -0.000000 -0.000000 0.000000 9.617859 1.685014 0.000000 0.000000 0.000000 0.000002 22.037384 7.501101 0.000000 -0.000000 0.000000 -4.569968 11.014880 -2.160881 0.000008 0.000001 -0.000038 -10.592878 -0.524758 -2.231914 74.587606 27.224017 -20.898784 -27.841511 0.000017 0.000552 -50.360385 107.745237 65.569399 -28.328825 0.000020 0.000022 -0.000321 -0.000043 0.000006 -2.464414 -1.573862 2.682366 -37.562031 -158.258871 13.565051 -3.215283 -1.872601 1.924672 156.640335 31.403734 1.219489 -2.654948 -1.527864 1.513072 144.743675 27.205291 -39.281644 -2.018831 -1.151981 1.108058 -0.000004 -0.000000 0.000007 -9.108372 -0.517552 2.260140 104.564589 15.884279 -20.511154 -3.700071 0.000328 0.001537 100.260019 11.222280 -13.390032 -2.850072 0.000374 -0.000249 99.349842 8.466324 -9.966215 -2.772153 0.000004 -0.000018 0.000001 0.000001 -0.000001 -9.532570 0.000281 0.000245 93.130224 14.626780 -15.586920 -3.700044 0.000344 0.003945 91.017817 7.557726 -7.601682 -2.950024 0.000356 -0.001841 91.294146 8.163333 -8.342224 -2.946631 0.000002 -0.000154 0.000004 -0.000001 -0.000000 -9.103674 -0.042749 -1.864889 88.831849 14.574608 -14.240818 -3.379284 0.000351 -0.000858 89.393277 2.321344 -2.312363 -2.889716 0.000376 0.000587 92.680367 1.314913 -1.421724 -2.638797 -0.000028 0.000939 0.000006 -0.000002 -0.000002 -8.076718 -0.486373 -3.806046 82.716002 15.558329 -13.583750 -3.600020 0.000291 -0.003562 84.570637 3.288650 -2.690909 -2.099991 0.000334 -0.005535 86.849366 0.567867 -0.345602 -2.115790 -0.000056 -0.003676 -0.000001 0.000000 -0.000004 4.570446 11.014691 -2.160851 -0.000018 0.000010 -0.000021 10.592397 -0.524479 -2.232345 72.614296 -12.851119 9.460887 27.841825 0.000062 -0.000193 103.114560 -71.418405 84.323897 28.328838 -0.000029 0.000015 0.000025 -0.000089 0.000000 2.465995 -1.576164 2.681910 -40.912014 162.306851 -6.863604 3.217830 -1.871791 1.916361 155.273218 -29.021935 12.024013 2.656095 -1.528646 1.514453 136.714105 -28.721560 44.032273 2.020899 -1.154087 1.115145 -0.000002 0.000004 0.000002 9.109387 -0.517867 2.259736 80.936744 -15.292249 13.056736 3.700043 0.000128 -0.000463 77.713667 -14.547593 11.756438 2.850052 0.000159 0.000211 75.148323 -12.612101 9.718555 2.774887 -0.000030 -0.000026 -0.000000 0.000000 0.000000 9.533466 0.000199 -0.000080 81.564056 -14.081588 12.155299 3.700060 0.000154 -0.000372 83.487540 -13.662909 12.201268 2.950059 0.000155 -0.000203 82.665308 -16.968029 14.951305 2.952880 -0.000030 0.000063 -0.000001 0.000000 0.000000 9.104588 -0.042856 -1.865216 81.230169 -13.829875 11.876828 3.150053 0.000193 -0.000078 86.344984 -13.831066 12.985037 2.950032 0.000139 -0.000063 86.237361 -15.405843 14.438354 2.644325 0.000047 0.000059 0.000002 0.000000 0.000000 8.077843 -0.486759 -3.806411 67.209731 -16.639077 11.502217 3.599992 0.000156 0.014566 68.908590 -14.534738 10.362410 2.100025 0.000153 0.007542 72.281201 -13.504601 10.246923 2.125492 -0.000016 0.007516 -0.000002 0.000001 0.000001 -8.207786 -6.751667 -1.599560 -0.077001 -0.000003 0.000080 -0.000002 -44.370110 0.345938 0.153719 -0.000000 -0.000000 0.000000 -44.423679 -3.043532 -0.076700 0.000000 -0.000002 -0.000006 -8.728667 10.710559 -0.000009 -0.000000 -0.000000 -0.000001 -0.000679 9.278123 0.000000 -0.000000 -0.000000 8.207792 -6.751710 -1.599556 -0.074518 -0.000003 0.000081 -0.000002 -44.370014 0.346960 0.148822 0.000002 0.000000 -0.000001 -44.423664 -3.044403 -0.074314 0.000000 -0.000002 -0.000004 -8.728671 10.710558 0.000007 -0.000000 -0.000000 0.000000 -0.000680 9.278137 -0.000000 0.000000 -0.000001 
0.000006 104.270477 1.554256 0.000010 0.000003 -0.000113 -0.000005 10.181587 0.131522 0.000001 -0.000003 0.000084 -0.000000 9.893967 -1.470711 0.000001 0.000000 -0.000000 -0.000000 9.220802 -1.370642 0.000000 -0.000000 -0.000000 0.000001 16.740433 -2.049030 0.000000 -0.000000 -0.000000 0.000000 9.617859 1.685014 0.000000 0.000000 0.000000 0.000002 22.037384 7.501101 0.000000 -0.000000 0.000000 -4.569968 11.014880 -2.160881 0.000008 0.000001 -0.000038 -10.592875 -0.524768 -2.231900 74.299597 29.834198 -22.822572 -27.841511 0.000012 0.000551 -48.910500 106.661115 62.834639 -28.328798 0.000006 0.000029 -0.000324 -0.000044 0.000007 -2.464408 -1.573821 2.682350 -44.126874 -160.584168 -0.956428 -3.215287 -1.872597 1.924649 155.751932 32.017372 5.356382 -2.654941 -1.527887 1.513081 144.404884 27.125540 -41.318755 -2.018811 -1.152014 1.108070 -0.000004 -0.000006 0.000002 -9.108397 -0.517580 2.260129 104.262353 15.500973 -19.914882 -3.700078 0.000305 0.001535 100.634293 13.254741 -15.914817 -2.850085 0.000371 -0.000256 98.563543 11.192270 -12.988361 -2.772177 -0.000001 -0.000018 -0.000000 0.000000 -0.000001 -9.532580 0.000272 0.000234 89.859348 14.465198 -14.569917 -3.700053 0.000336 0.003943 91.192717 8.613223 -8.701059 -2.950049 0.000333 -0.001831 93.599717 10.220807 -10.872713 -2.946634 0.000000 -0.000153 0.000001 -0.000000 -0.000002 -9.103705 -0.042765 -1.864906 86.367940 15.537166 -14.551426 -3.379291 0.000340 -0.000843 89.782898 3.709969 -3.711860 -2.889715 0.000355 0.000607 96.127112 4.325311 -4.862743 -2.638810 0.000001 0.000941 -0.000002 0.000002 0.000000 -8.076757 -0.486400 -3.806048 80.917169 17.092111 -14.476559 -3.600014 0.000294 -0.003553 85.082936 4.485155 -3.807745 -2.099995 0.000333 -0.005511 90.408468 2.608243 -2.415811 -2.115771 -0.000053 -0.003679 -0.000005 0.000002 -0.000005 4.570446 11.014691 -2.160851 -0.000018 0.000010 -0.000021 10.592408 -0.524475 -2.232352 72.707200 -15.360464 11.336698 27.841831 0.000053 -0.000194 105.440485 -73.763099 89.172320 28.328840 -0.000044 0.000016 0.000018 -0.000088 -0.000000 2.466203 -1.576114 2.681860 -7.402177 163.226754 -75.440382 3.217860 -1.871807 1.916403 163.601745 -25.111517 28.360255 2.656112 -1.528661 1.514488 138.341862 -27.968795 56.207334 2.020891 -1.154078 1.115160 -0.000000 0.000004 0.000002 9.109381 -0.517876 2.259738 80.773954 -18.796298 16.018223 3.700043 0.000152 -0.000470 78.112318 -11.807988 9.606318 2.850031 0.000165 0.000203 77.320398 -9.636745 7.715043 2.774863 -0.000030 -0.000032 0.000000 0.000001 0.000001 9.533468 0.000208 -0.000083 81.212397 -17.819658 15.301456 3.700036 0.000181 -0.000376 83.463894 -10.437850 9.313146 2.950047 0.000179 -0.000200 84.467262 -11.401537 10.359123 2.952865 -0.000015 0.000064 0.000001 0.000000 0.000000 9.104597 -0.042856 -1.865220 80.109807 -17.945115 15.124882 3.150044 0.000190 -0.000100 85.582783 -12.001739 11.117881 2.950027 0.000172 -0.000084 87.582471 -11.012997 10.562153 2.644318 0.000029 0.000057 -0.000002 -0.000001 0.000000 8.077862 -0.486756 -3.806396 68.578180 -20.128311 14.227801 3.599993 0.000134 0.014591 69.884829 -17.266305 12.490522 2.100019 0.000154 0.007558 73.778085 -13.443999 10.482523 2.125506 -0.000014 0.007516 -0.000003 0.000004 0.000002 -8.207786 -6.751667 -1.599560 -0.077001 -0.000003 0.000080 -0.000002 -44.370110 0.345938 0.153719 -0.000000 -0.000000 0.000000 -44.423679 -3.043532 -0.076700 0.000000 -0.000002 -0.000006 -8.728667 10.710559 -0.000009 -0.000000 -0.000000 -0.000001 -0.000679 9.278123 0.000000 -0.000000 -0.000000 8.207792 -6.751710 -1.599556 -0.074518 -0.000003 0.000081 -0.000002 -44.370014 0.346960 0.148822 0.000002 0.000000 -0.000001 -44.423664 -3.044403 -0.074314 0.000000 -0.000002 -0.000004 -8.728671 10.710558 0.000007 -0.000000 -0.000000 0.000000 -0.000680 9.278137 -0.000000 0.000000 -0.000001 
0.000006 104.270477 1.554256 0.000010 0.000003 -0.000113 -0.000005 10.181587 0.131522 0.000001 -0.000003 0.000084 -0.000000 9.893967 -1.470711 0.000001 0.000000 -0.000000 -0.000000 9.220802 -1.370642 0.000000 -0.000000 -0.000000 0.000001 16.740433 -2.049030 0.000000 -0.000000 -0.000000 0.000000 9.617859 1.685014 0.000000 0.000000 0.000000 0.000002 22.037384 7.501101 0.000000 -0.000000 0.000000 -4.569968 11.014880 -2.160881 0.000008 0.000001 -0.000038 -10.592867 -0.524783 -2.231870 74.221466 35.933236 -27.569729 -27.841520 0.000020 0.000559 -47.553256 104.439746 59.226039 -28.328838 0.000021 0.000034 -0.000321 -0.000043 0.000008 -2.464422 -1.573937 2.682384 -26.737698 -149.544082 30.556135 -3.215266 -1.872563 1.924646 153.113457 32.772146 12.714783 -2.654953 -1.527890 1.513070 143.496756 27.818421 -34.071125 -2.018829 -1.151986 1.108061 -0.000002 -0.000002 -0.000000 -9.108369 -0.517547 2.260175 110.323695 16.114737 -23.059916 -3.700053 0.000314 0.001549 105.051322 12.166033 -15.798018 -2.850077 0.000370 -0.000213 102.956154 9.842926 -12.345894 -2.772163 -0.000016 -0.000026 0.000001 0.000002 -0.000000 -9.532575 0.000275 0.000244 94.925177 14.765821 -16.229189 -3.700073 0.000350 0.003966 93.816972 8.440524 -8.923344 -2.950042 0.000349 -0.001824 93.643403 9.640756 -10.263494 -2.946627 0.000015 -0.000155 -0.000000 0.000001 0.000001 -9.103692 -0.042755 -1.864876 89.623495 16.291835 -16.142525 -3.379329 0.000312 -0.000822 91.508634 6.939795 -7.141689 -2.889732 0.000369 0.000633 95.714289 6.035788 -6.718222 -2.638801 0.000003 0.000937 -0.000001 -0.000000 0.000003 -8.076737 -0.486388 -3.806046 83.492301 17.423399 -15.437607 -3.600046 0.000276 -0.003534 86.068505 7.982276 -7.124300 -2.100032 0.000323 -0.005497 89.252459 5.460170 -5.173526 -2.115775 -0.000069 -0.003678 0.000005 -0.000001 -0.000000 4.570446 11.014691 -2.160851 -0.000018 0.000010 -0.000021 10.592415 -0.524470 -2.232369 72.632505 -18.636070 13.753441 27.841829 0.000049 -0.000208 106.994866 -75.103886 92.182507 28.328848 -0.000044 0.000021 0.000023 -0.000088 -0.000000 2.466263 -1.575995 2.681817 12.955333 173.557566 -112.529955 3.217863 -1.871829 1.916412 164.114501 -22.620939 37.658654 2.656104 -1.528670 1.514477 138.628101 -27.808374 58.008045 2.020899 -1.154051 1.115156 0.000006 0.000007 0.000002 9.109385 -0.517874 2.259745 82.084804 -23.325943 20.363424 3.700029 0.000147 -0.000463 80.144982 -15.222108 12.842403 2.850060 0.000174 0.000199 80.400889 -12.045847 10.189310 2.774894 -0.000030 -0.000021 0.000001 0.000002 0.000000 9.533465 0.000171 -0.000079 78.597862 -21.765685 17.877301 3.700054 0.000182 -0.000364 83.075536 -13.001286 11.526072 2.950044 0.000149 -0.000199 84.365213 -12.319774 11.174426 2.952873 -0.000031 0.000062 -0.000001 0.000001 -0.000000 9.104597 -0.042883 -1.865214 78.005801 -20.871178 16.968903 3.150039 0.000173 -0.000095 83.709023 -13.766293 12.345440 2.950013 0.000154 -0.000082 84.415647 -10.644442 9.660934 2.644334 0.000030 0.000056 -0.000001 -0.000001 -0.000000 8.077847 -0.486750 -3.806390 71.880528 -21.686807 16.268643 3.600022 0.000134 0.014575 71.835333 -17.630467 13.212169 2.100045 0.000158 0.007544 75.197678 -13.037581 10.436970 2.125521 -0.000015 0.007513 0.000001 0.000001 -0.000001 -8.207786 -6.751667 -1.599560 -0.077001 -0.000003 0.000080 -0.000002 -44.370110 0.345938 0.153719 -0.000000 -0.000000 0.000000 -44.423679 -3.043532 -0.076700 0.000000 -0.000002 -0.000006 -8.728667 10.710559 -0.000009 -0.000000 -0.000000 -0.000001 -0.000679 9.278123 0.000000 -0.000000 -0.000000 8.207792 -6.751710 -1.599556 -0.074518 -0.000003 0.000081 -0.000002 -44.370014 0.346960 0.148822 0.000002 0.000000 -0.000001 -44.423664 -3.044403 -0.074314 0.000000 -0.000002 -0.000004 -8.728671 10.710558 0.000007 -0.000000 -0.000000 0.000000 -0.000680 9.278137 -0.000000 0.000000 -0.000001 
